<?xml version="1.0" encoding="utf-8"?>
<svg version="1.1" id="Layer_1" xmlns="http://www.w3.org/2000/svg" xmlns:xlink="http://www.w3.org/1999/xlink" x="0px" y="0px"
	 viewBox="0 0 100 100" style="enable-background:new 0 0 100 100;" xml:space="preserve">
<style type="text/css">
	.st0{fill:#020203;}
</style>
<g>
	<path class="st0" d="M25.05078,10.90129v2.52993c0,0.6959-0.56114,1.26497-1.24916,1.26497H5.06432v20.23945
		c0,0.6959-0.56114,1.26497-1.24915,1.26497H1.31685c-0.68638,0-1.24915-0.56907-1.24915-1.26497V10.90129
		c0-0.6959,0.56277-1.26497,1.24915-1.26497h22.48477C24.48963,9.63633,25.05078,10.2054,25.05078,10.90129z M25.05078,86.79924
		v2.52994c0,0.69589-0.56114,1.26496-1.24916,1.26496H1.31685c-0.68638,0-1.24915-0.56907-1.24915-1.26496V65.29482
		c0-0.69589,0.56277-1.26496,1.24915-1.26496h2.49831c0.68801,0,1.24915,0.56907,1.24915,1.26496v20.23946h18.7373
		C24.48963,85.53428,25.05078,86.10335,25.05078,86.79924z M25.05078,26.08088v48.0687c0,0.6959-0.56114,1.26497-1.24916,1.26497
		H16.3067c-0.68639,0-1.24916-0.56907-1.24916-1.26497v-48.0687c0-0.69589,0.56277-1.26497,1.24916-1.26497h7.49492
		C24.48963,24.81592,25.05078,25.38499,25.05078,26.08088z M35.04401,26.08088v48.0687c0,0.6959-0.56115,1.26497-1.24915,1.26497
		h-2.49831c-0.68638,0-1.24915-0.56907-1.24915-1.26497v-48.0687c0-0.69589,0.56277-1.26497,1.24915-1.26497h2.49831
		C34.48286,24.81592,35.04401,25.38499,35.04401,26.08088z M45.03724,26.08088v48.0687c0,0.6959-0.56114,1.26497-1.24915,1.26497
		h-2.49831c-0.68638,0-1.24915-0.56907-1.24915-1.26497v-48.0687c0-0.69589,0.56277-1.26497,1.24915-1.26497h2.49831
		C44.47609,24.81592,45.03724,25.38499,45.03724,26.08088z M65.0237,26.08088v48.0687c0,0.6959-0.56114,1.26497-1.24916,1.26497
		h-7.49492c-0.68638,0-1.24915-0.56907-1.24915-1.26497v-48.0687c0-0.69589,0.56277-1.26497,1.24915-1.26497h7.49492
		C64.46255,24.81592,65.0237,25.38499,65.0237,26.08088z M100,10.90129v24.03435c0,0.6959-0.56114,1.26497-1.24915,1.26497h-2.49831
		c-0.68639,0-1.24915-0.56907-1.24915-1.26497V14.69619H76.26608c-0.68638,0-1.24915-0.56907-1.24915-1.26497v-2.52993
		c0-0.6959,0.56277-1.26497,1.24915-1.26497h22.48477C99.43886,9.63633,100,10.2054,100,10.90129z M75.01692,74.14958v-48.0687
		c0-0.69589,0.56277-1.26497,1.24915-1.26497H83.761c0.68801,0,1.24915,0.56907,1.24915,1.26497v48.0687
		c0,0.6959-0.56114,1.26497-1.24915,1.26497h-7.49493C75.5797,75.41455,75.01692,74.84548,75.01692,74.14958z M100,65.29482
		v24.03436c0,0.69589-0.56114,1.26496-1.24915,1.26496H76.26608c-0.68638,0-1.24915-0.56907-1.24915-1.26496v-2.52994
		c0-0.69589,0.56277-1.26496,1.24915-1.26496h18.73731V65.29482c0-0.69589,0.56277-1.26496,1.24915-1.26496h2.49831
		C99.43886,64.02986,100,64.59893,100,65.29482z"/>
</g>
</svg>
