<?xml version="1.0" encoding="utf-8"?>
<svg version="1.1" id="Layer_1" xmlns="http://www.w3.org/2000/svg" xmlns:xlink="http://www.w3.org/1999/xlink" x="0px" y="0px"
	 viewBox="0 0 100 100" style="enable-background:new 0 0 100 100;" xml:space="preserve">
<style type="text/css">
	.st0{fill:#187D35;}
</style>
<g>
	<path class="st0" d="M100,50.00331c0,27.61618-22.37751,50.00331-49.98183,50.00331S0.03634,77.6195,0.03634,50.00331
		S22.41385,0,50.01817,0S100,22.38713,100,50.00331z M93.55074,50.00331c0-24.18441-19.61708-43.55127-43.53257-43.55127
		c-24.17319,0-43.53256,19.62551-43.53256,43.55127c0,24.18441,19.61707,43.55127,43.53256,43.55127
		C74.19302,93.55459,93.55074,73.92908,93.55074,50.00331z M42.18951,74.21252c-0.94823,0.94119-2.4796,0.93541-3.42122-0.01322
		L21.46066,56.74374c-0.93997-0.94864-0.93501-2.48066,0.01322-3.42186l1.71804-1.70391
		c0.94823-0.94037,2.4796-0.93459,3.41957,0.01405l13.90128,14.01963l32.94017-32.6899
		c0.94823-0.94037,2.4796-0.93459,3.41956,0.01405l1.70318,1.71795c0.94162,0.94864,0.93501,2.48067-0.01321,3.42186
		L42.18951,74.21252z"/>
</g>
</svg>
