<?xml version="1.0" encoding="utf-8"?>
<svg version="1.1" id="Layer_1" xmlns="http://www.w3.org/2000/svg" xmlns:xlink="http://www.w3.org/1999/xlink" x="0px" y="0px"
	 viewBox="0 0 100 100" style="enable-background:new 0 0 100 100;" xml:space="preserve">
<style type="text/css">
	.st0{fill:#FCC925;}
</style>
<g>
	<path class="st0" d="M91.66593,100H8.34624c-6.42388,0-10.4171-6.96181-7.22223-12.50051l41.65131-72.2252
		c3.21194-5.55578,11.25103-5.55578,14.44447,0l41.6513,72.2252C102.08302,93.05527,98.05423,100,91.66593,100z M94.061,90.27737
		L52.39263,18.05218c-1.05879-1.85786-3.74845-1.84007-4.80866,0L5.91559,90.27737c-1.05879,1.85786,0.2775,4.16684,2.41358,4.16684
		h83.33676C93.802,94.44421,95.1383,92.11745,94.061,90.27737z M54.85886,83.33265c0,2.69108-2.17023,4.86131-4.86131,4.86131
		c-2.69108,0-4.86131-2.17023-4.86131-4.86131c0-2.69109,2.17023-4.86131,4.86131-4.86131
		C52.68863,78.47134,54.85886,80.64156,54.85886,83.33265z M53.07002,38.88638c0.59059,0,1.05878,0.48599,1.04171,1.07657
		l-1.30072,34.02918c-0.0185,0.55573-0.4867,1.00684-1.04171,1.00684h-3.5606c-0.55501,0-1.02463-0.43404-1.04171-1.00684
		l-1.30071-34.02918c-0.0185-0.59058,0.4497-1.07657,1.04171-1.07657H53.07002z"/>
</g>
</svg>
