<?xml version="1.0" encoding="utf-8"?>
<svg version="1.1" id="Layer_1" xmlns="http://www.w3.org/2000/svg" xmlns:xlink="http://www.w3.org/1999/xlink" x="0px" y="0px"
	 viewBox="0 0 100 100" style="enable-background:new 0 0 100 100;" xml:space="preserve">
<style type="text/css">
	.st0{fill:#FCC407;}
</style>
<g>
	<path class="st0" d="M100,49.97316c0,27.60532-22.37527,49.97316-49.97316,49.97316
		c-27.59623,0-49.97316-22.36784-49.97316-49.97316C0.05368,22.38354,22.43061,0,50.02684,0C77.62473,0,100,22.38354,100,49.97316z
		 M6.50183,49.97316c0,24.06742,19.4964,43.52502,43.52501,43.52502c24.05833,0,43.52501-19.48732,43.52501-43.52502
		c0-24.1657-19.62193-43.52501-43.52501-43.52501C25.9685,6.44815,6.50183,25.95281,6.50183,49.97316z M55.66897,72.54169
		c0,3.11589-2.52541,5.64213-5.64213,5.64213c-3.11507,0-5.64213-2.52624-5.64213-5.64213s2.52707-5.64214,5.64213-5.64214
		C53.14355,66.89955,55.66897,69.4258,55.66897,72.54169z M52.34249,24.18056c1.3742,0,2.47256,1.14461,2.4164,2.51881
		l-1.41053,33.85279c-0.0545,1.29491-1.11984,2.3173-2.4164,2.3173h-1.81024c-1.29491,0-2.3619-1.02239-2.41475-2.3173
		l-1.41053-33.85279c-0.05781-1.3742,1.04056-2.51881,2.41475-2.51881H52.34249z"/>
</g>
</svg>
