<?xml version="1.0" encoding="utf-8"?>
<svg version="1.1" id="Layer_1" xmlns="http://www.w3.org/2000/svg" xmlns:xlink="http://www.w3.org/1999/xlink" x="0px" y="0px"
	 viewBox="0 0 100 100" style="enable-background:new 0 0 100 100;" xml:space="preserve">
<style type="text/css">
	.st0{fill:#2E4C97;}
</style>
<g>
	<path class="st0" d="M73.26856,52.7228L51.28687,63.72445l-10.98964,22.0089c-0.47697,0.95315-1.72864,1.72704-2.79463,1.72704
		c-1.06599,0-2.31765-0.77389-2.79463-1.72704l-10.98965-22.0089L1.73664,52.7188C0.77789,52.24343,0,50.98936,0,49.91937
		c0-1.06919,0.77789-2.32325,1.73664-2.79863l21.98169-10.99604l10.98965-22.0209c1.06039-2.12078,4.52887-2.12078,5.58926,0
		l10.98964,22.0209l21.98169,10.99604c0.95155,0.47858,1.72543,1.73264,1.72623,2.79783
		C74.9948,50.98536,74.22092,52.24183,73.26856,52.7228z M64.88388,49.91857L47.5591,41.24498
		c-0.51299-0.2593-1.13962-0.88593-1.39811-1.39812L37.5026,22.50048l-8.65839,17.34638
		c-0.2585,0.51219-0.88513,1.13882-1.39812,1.39812l-17.32478,8.67359l17.32478,8.67599
		c0.51379,0.2585,1.14042,0.88433,1.39812,1.39811l8.65839,17.34638l8.65839-17.34638
		c0.25769-0.51379,0.88432-1.13962,1.39811-1.39811L64.88388,49.91857z M100,81.20609c0,1.06999-0.77789,2.32405-1.73664,2.79943
		l-9.48429,4.74654l-4.74094,9.49629c-0.47697,0.95316-1.72864,1.72704-2.79462,1.72704c-1.06599,0-2.31766-0.77388-2.79463-1.72704
		l-4.74094-9.49629l-9.48429-4.74654c-0.95875-0.47538-1.73664-1.72944-1.73664-2.79943s0.77789-2.32406,1.73664-2.79943
		l9.48429-4.74654l4.74094-9.4963c1.06039-2.12078,4.52887-2.12078,5.58926,0l4.74094,9.4963l9.48429,4.74654
		C99.22211,78.88203,100,80.13609,100,81.20609z M62.4894,18.63186c0-1.06839,0.77629-2.32245,1.73424-2.79783l9.48429-4.74895
		l4.74094-9.49629c1.06039-2.11838,4.52887-2.11838,5.58926,0l4.74094,9.49629l9.48429,4.74895
		c0.95795,0.47538,1.73424,1.72944,1.73424,2.79783c0,1.06919-0.77628,2.32325-1.73424,2.79863l-9.48429,4.74895l-4.74094,9.49629
		c-0.47697,0.95315-1.72864,1.72623-2.79462,1.72623c-1.06599,0-2.31766-0.77308-2.79463-1.72623l-4.74094-9.49629l-9.48429-4.74895
		C63.26568,20.95511,62.4894,19.70105,62.4894,18.63186z M72.60832,18.63186l4.82738,2.42569
		c0.51299,0.2593,1.13962,0.88513,1.39811,1.39812l2.40969,4.82338l2.40968-4.83138c0.2585-0.51299,0.88512-1.13882,1.39812-1.39812
		l4.82738-2.42489l-4.82738-2.41769c-0.51219-0.25609-1.13882-0.87872-1.39812-1.39011L81.2435,9.98547l-2.40969,4.82337
		c-0.25769,0.51379-0.88432,1.14042-1.39811,1.39812L72.60832,18.63186z M89.87868,81.20689l-4.82738-2.41689
		c-0.51299-0.25929-1.13962-0.88673-1.39812-1.40051L81.2435,72.5605l-2.40969,4.82898
		c-0.25849,0.51379-0.88512,1.14122-1.39811,1.40051l-4.82738,2.41689l4.82738,2.41608
		c0.51299,0.2585,1.13962,0.88593,1.39811,1.39972l2.40969,4.83138l2.40968-4.83138c0.2585-0.51379,0.88512-1.14122,1.39812-1.39972
		L89.87868,81.20689z"/>
</g>
</svg>
